<?xml version="1.0" encoding="utf-8"?>
<!-- Generator: Adobe Illustrator 26.0.1, SVG Export Plug-In . SVG Version: 6.00 Build 0)  -->
<svg version="1.1" id="Layer_1" xmlns="http://www.w3.org/2000/svg" xmlns:xlink="http://www.w3.org/1999/xlink" x="0px" y="0px"
	 viewBox="0 0 180 180" style="enable-background:new 0 0 180 180;" xml:space="preserve">
<style type="text/css">
	.st0{display:none;}
	.st1{display:inline;}
	.st2{clip-path:url(#SVGID_00000081646710757989711310000002392605301028735676_);}
	.st3{display:inline;fill:none;}
	.st4{fill:none;}
</style>
<g class="st0">
	<defs>
		<rect id="SVGID_1_" width="180" height="180"/>
	</defs>
	<clipPath id="SVGID_00000178907745591722521840000012777450740653502130_" class="st1">
		<use xlink:href="#SVGID_1_"  style="overflow:visible;"/>
	</clipPath>
	<g style="clip-path:url(#SVGID_00000178907745591722521840000012777450740653502130_);">
		<path class="st3" d="M37,0h106c20.4,0,37,16.6,37,37v106c0,20.4-16.6,37-37,37H37c-20.4,0-37-16.6-37-37V37C0,16.6,16.6,0,37,0z"
			/>
		<g class="st1">
			<path class="st4" d="M101.1,53h35.5c14.4,0,26.1,11.7,26.1,26.1v33.8h-14.6V79.1c0-0.3,0-0.7,0-1l-35.5,34.9c0.1,0,0.2,0,0.4,0
				h35.2v13.8h-35.2c-14.4,0-26.4-11.8-26.4-26.2V66.7h14.6v33.8c0,0.7,0.1,1.3,0.1,1.9l36.3-35.6c-0.3,0-0.6,0-0.9,0h-35.5V53z"/>
			<path class="st4" d="M65.3,124.1L14,66.7h20.6l30.1,33.7V66.7h15.4v51.7C80.1,126.3,70.5,130,65.3,124.1z"/>
		</g>
	</g>
</g>
<image style="overflow:visible;" width="180" height="180" xlink:href="apple-icon.png"  transform="matrix(0.9784 0 0 0.9784 1.8559 3.8898)">
</image>
</svg>
